<svg width="36" height="36" viewBox="0 0 36 36" fill="none" xmlns="http://www.w3.org/2000/svg">
<path d="M34.558 11.8484H32.5833C32.0375 11.8484 31.5959 12.29 31.5959 12.8358V28.8035L3.08171 0.289105C2.89259 0.100085 2.646 0.00381563 2.39829 0.000112978C2.14068 -0.00377481 1.88186 0.0926793 1.68525 0.289105L0.289258 1.68519C0.1032 1.87116 0.00683864 2.11294 0.000359002 2.35676C-0.00667603 2.61817 0.0896855 2.88198 0.289258 3.08146L28.8036 31.5959H12.8359C12.2901 31.5959 11.8485 32.0375 11.8485 32.5833V34.558C11.8485 35.1037 12.2901 35.5454 12.8359 35.5454H34.5581C35.1039 35.5454 35.5455 35.1037 35.5455 34.558V12.8358C35.5454 12.29 35.1038 11.8484 34.558 11.8484Z" fill="#FFDEB1"/>
</svg>
