<svg width="24" height="17" viewBox="0 0 24 17" fill="none" xmlns="http://www.w3.org/2000/svg">
<path d="M0 1.21429C0 0.892237 0.126428 0.583379 0.351472 0.355656C0.576515 0.127934 0.88174 0 1.2 0H22.8C23.1183 0 23.4235 0.127934 23.6485 0.355656C23.8736 0.583379 24 0.892237 24 1.21429C24 1.53633 23.8736 1.84519 23.6485 2.07292C23.4235 2.30064 23.1183 2.42857 22.8 2.42857H1.2C0.88174 2.42857 0.576515 2.30064 0.351472 2.07292C0.126428 1.84519 0 1.53633 0 1.21429ZM22.8 7.28571H1.2C0.88174 7.28571 0.576515 7.41365 0.351472 7.64137C0.126428 7.86909 0 8.17795 0 8.5C0 8.82205 0.126428 9.13091 0.351472 9.35863C0.576515 9.58635 0.88174 9.71429 1.2 9.71429H22.8C23.1183 9.71429 23.4235 9.58635 23.6485 9.35863C23.8736 9.13091 24 8.82205 24 8.5C24 8.17795 23.8736 7.86909 23.6485 7.64137C23.4235 7.41365 23.1183 7.28571 22.8 7.28571ZM22.8 14.5714H12C11.6817 14.5714 11.3765 14.6994 11.1515 14.9271C10.9264 15.1548 10.8 15.4637 10.8 15.7857C10.8 16.1078 10.9264 16.4166 11.1515 16.6443C11.3765 16.8721 11.6817 17 12 17H22.8C23.1183 17 23.4235 16.8721 23.6485 16.6443C23.8736 16.4166 24 16.1078 24 15.7857C24 15.4637 23.8736 15.1548 23.6485 14.9271C23.4235 14.6994 23.1183 14.5714 22.8 14.5714Z" fill="white"/>
<path d="M0 1.21429C0 0.892237 0.126428 0.583379 0.351472 0.355656C0.576515 0.127934 0.88174 0 1.2 0H22.8C23.1183 0 23.4235 0.127934 23.6485 0.355656C23.8736 0.583379 24 0.892237 24 1.21429C24 1.53633 23.8736 1.84519 23.6485 2.07292C23.4235 2.30064 23.1183 2.42857 22.8 2.42857H1.2C0.88174 2.42857 0.576515 2.30064 0.351472 2.07292C0.126428 1.84519 0 1.53633 0 1.21429ZM22.8 7.28571H1.2C0.88174 7.28571 0.576515 7.41365 0.351472 7.64137C0.126428 7.86909 0 8.17795 0 8.5C0 8.82205 0.126428 9.13091 0.351472 9.35863C0.576515 9.58635 0.88174 9.71429 1.2 9.71429H22.8C23.1183 9.71429 23.4235 9.58635 23.6485 9.35863C23.8736 9.13091 24 8.82205 24 8.5C24 8.17795 23.8736 7.86909 23.6485 7.64137C23.4235 7.41365 23.1183 7.28571 22.8 7.28571ZM22.8 14.5714H12C11.6817 14.5714 11.3765 14.6994 11.1515 14.9271C10.9264 15.1548 10.8 15.4637 10.8 15.7857C10.8 16.1078 10.9264 16.4166 11.1515 16.6443C11.3765 16.8721 11.6817 17 12 17H22.8C23.1183 17 23.4235 16.8721 23.6485 16.6443C23.8736 16.4166 24 16.1078 24 15.7857C24 15.4637 23.8736 15.1548 23.6485 14.9271C23.4235 14.6994 23.1183 14.5714 22.8 14.5714Z" fill="url(#paint0_linear_42_259)"/>
<defs>
<linearGradient id="paint0_linear_42_259" x1="12" y1="0" x2="12" y2="17" gradientUnits="userSpaceOnUse">
<stop stop-color="#130058"/>
<stop offset="1" stop-color="#1A152C"/>
</linearGradient>
</defs>
</svg>
