<svg width="23" height="23" viewBox="0 0 23 23" fill="none" xmlns="http://www.w3.org/2000/svg">
<path d="M22.1076 7.57972H20.8443C20.4952 7.57972 20.2127 7.86224 20.2127 8.21138V18.4263L1.97144 0.184947C1.85046 0.0640265 1.69271 0.00244095 1.53424 7.22747e-05C1.36944 -0.00241483 1.20387 0.0592892 1.0781 0.184947L0.185046 1.07806C0.0660196 1.19702 0.00437484 1.3517 0.000229662 1.50768C-0.00427082 1.6749 0.057374 1.84367 0.185046 1.97128L18.4263 20.2126H8.21142C7.86228 20.2126 7.57976 20.4952 7.57976 20.8443V22.1076C7.57976 22.4567 7.86228 22.7392 8.21142 22.7392H22.1077C22.4568 22.7392 22.7393 22.4567 22.7393 22.1076V8.21138C22.7393 7.86224 22.4568 7.57972 22.1076 7.57972Z" fill="black"/>
</svg>
