<svg width="83" height="23" viewBox="0 0 83 23" fill="none" xmlns="http://www.w3.org/2000/svg">
<path d="M0.271732 4.83627V2.50753H9.29307L0.271732 4.83627ZM9.29307 2.50753V4.83627H6.24546V10H3.35985V4.83627H0.271732V2.50753H9.29307ZM15.4355 10L13.3599 7.58013H12.3778V10H9.64405V2.50753H15.476C16.1038 2.50753 16.6573 2.61215 17.1365 2.8214C17.6225 3.03065 17.9971 3.32427 18.2604 3.70227C18.5304 4.07352 18.6654 4.50552 18.6654 4.99827V5.03877C18.6654 5.68002 18.4764 6.20989 18.0984 6.62839C17.7271 7.04689 17.2108 7.32701 16.5493 7.46876L18.7261 10H15.4355ZM16.0025 5.03877C16.0025 4.83627 15.9553 4.69114 15.8608 4.60339C15.773 4.5089 15.6515 4.45152 15.4963 4.43127C15.3478 4.41102 15.1183 4.4009 14.8078 4.4009H14.4838C14.2745 4.40765 13.5725 4.41102 12.3778 4.41102V5.64627H14.7977H14.8078C15.1183 5.64627 15.3478 5.63614 15.4963 5.61589C15.6515 5.59564 15.773 5.54502 15.8608 5.46402C15.9553 5.37627 16.0025 5.23452 16.0025 5.03877ZM29.0255 10H26.1399L25.5223 8.866H21.5229L20.9053 10H18.0197L22.0798 2.50753H24.9654L29.0255 10ZM23.5277 5.17039L22.5152 7.02326H24.53L23.5277 5.17039ZM31.811 10H28.9254V2.50753L31.811 10ZM38.8478 10H35.9622H38.8478ZM35.9622 6.72964V2.50753H38.8478V10H35.9622L31.811 5.77789V10H28.9254V2.50753H31.811L35.9622 6.72964ZM44.3943 5.50452C44.7183 5.49102 44.9715 5.48427 45.1537 5.48427C46.1325 5.48427 46.9256 5.62264 47.5331 5.89939C48.1473 6.17614 48.4544 6.71951 48.4544 7.52951C48.4544 8.58926 47.9853 9.30475 47.0471 9.676C46.1088 10.0472 45.0525 10.2329 43.878 10.2329C42.6967 10.2329 41.6133 10.0472 40.6279 9.676C39.6424 9.30475 39.1496 8.58926 39.1496 7.52951H42.1263C42.1263 7.92101 42.2985 8.17076 42.6427 8.27876C42.987 8.38676 43.3987 8.44076 43.878 8.44076C44.3302 8.44076 44.7183 8.36988 45.0423 8.22813C45.3663 8.08638 45.5283 7.86701 45.5283 7.57001C45.5283 7.32026 45.3562 7.15826 45.012 7.08401C44.6745 7.00301 44.2796 6.96251 43.8273 6.96251L42.8148 6.97264C42.1398 6.97264 41.5391 6.92539 41.0126 6.83089C40.4929 6.72964 40.0507 6.52376 39.6862 6.21326C39.3285 5.89602 39.1496 5.43364 39.1496 4.82614C39.1496 4.0904 39.4095 3.5369 39.9292 3.16565C40.4557 2.78765 41.0565 2.54803 41.7315 2.44678C42.4065 2.33878 43.122 2.28478 43.878 2.28478C45.0525 2.28478 46.1088 2.4704 47.0471 2.84165C47.9853 3.20615 48.4544 3.92165 48.4544 4.98814H45.5283C45.5283 4.70464 45.3663 4.49202 45.0423 4.35027C44.7251 4.20852 44.337 4.1309 43.878 4.1174C43.392 4.1174 42.9768 4.1714 42.6326 4.2794C42.2951 4.3874 42.1263 4.55952 42.1263 4.79577C42.1263 5.06577 42.2985 5.25139 42.6427 5.35264C42.987 5.45389 43.3751 5.50789 43.8071 5.51464L44.3943 5.50452ZM56.9616 2.50753V4.53252H51.646V5.40327H56.1111V7.37763H51.646V10H48.7604V2.50753H56.9616ZM61.7628 2.34553C62.7146 2.34553 63.5718 2.51765 64.3346 2.8619C65.0973 3.1994 65.6947 3.66852 66.1267 4.26927C66.5587 4.86327 66.7747 5.53489 66.7747 6.28414C66.7747 7.02664 66.5587 7.69488 66.1267 8.28888C65.6947 8.88288 65.0973 9.352 64.3346 9.69625C63.5718 10.0337 62.7146 10.2025 61.7628 10.2025C60.8516 10.2025 60.0078 10.0337 59.2316 9.69625C58.4621 9.352 57.8479 8.88288 57.3889 8.28888C56.9366 7.68813 56.7105 7.01989 56.7105 6.28414C56.7105 5.54164 56.9366 4.87002 57.3889 4.26927C57.8479 3.66852 58.4621 3.1994 59.2316 2.8619C60.0078 2.51765 60.8516 2.34553 61.7628 2.34553ZM61.773 8.05601C62.097 8.05601 62.4075 7.98513 62.7045 7.84338C63.0082 7.70163 63.2546 7.49576 63.4436 7.22576C63.6326 6.95576 63.7271 6.64189 63.7271 6.28414C63.7271 5.91964 63.6326 5.60577 63.4436 5.34252C63.2546 5.07252 63.0082 4.86664 62.7045 4.72489C62.4075 4.58314 62.097 4.51227 61.773 4.51227C61.4557 4.51227 61.1452 4.58314 60.8415 4.72489C60.5445 4.86664 60.2981 5.07252 60.1023 5.34252C59.9133 5.60577 59.8188 5.91964 59.8188 6.28414C59.8188 6.64189 59.9133 6.95576 60.1023 7.22576C60.2981 7.49576 60.5445 7.70163 60.8415 7.84338C61.1452 7.98513 61.4557 8.05601 61.773 8.05601Z" fill="#B0B0B0"/>
<path d="M25.527 18.7573L23.4514 16.3374H22.4692V18.7573H19.7355V11.2648H25.5675C26.1952 11.2648 26.7487 11.3694 27.228 11.5787C27.714 11.7879 28.0886 12.0816 28.3518 12.4596C28.6218 12.8308 28.7568 13.2628 28.7568 13.7556V13.7961C28.7568 14.4373 28.5678 14.9672 28.1898 15.3857C27.8186 15.8042 27.3022 16.0843 26.6407 16.226L28.8176 18.7573H25.527ZM26.094 13.7961C26.094 13.5936 26.0467 13.4484 25.9522 13.3607C25.8645 13.2662 25.743 13.2088 25.5877 13.1886C25.4392 13.1683 25.2097 13.1582 24.8992 13.1582H24.5752C24.366 13.1649 23.664 13.1683 22.4692 13.1683V14.4035H24.8891H24.8992C25.2097 14.4035 25.4392 14.3934 25.5877 14.3732C25.743 14.3529 25.8645 14.3023 25.9522 14.2213C26.0467 14.1335 26.094 13.9918 26.094 13.7961ZM40.2412 11.2648V18.7573H37.3556V16.0134L36.0191 18.7573H33.4373L32.0096 15.983V18.7573H29.124V11.2648H32.364L34.7332 16.1147L37.0924 11.2648H40.2412ZM51.1455 18.7573H48.2599L47.6423 17.6233H43.6429L43.0253 18.7573H40.1397L44.1998 11.2648H47.0854L51.1455 18.7573ZM45.6476 13.9277L44.6351 15.7805H46.65L45.6476 13.9277ZM48.6193 13.5936V11.2648H57.6407L48.6193 13.5936ZM57.6407 11.2648V13.5936H54.593V18.7573H51.7074V13.5936H48.6193V11.2648H57.6407ZM60.8772 18.7573H57.9916V11.2648H60.8772V18.7573ZM66.2381 11.1028C67.1898 11.1028 68.0471 11.2749 68.8098 11.6192C69.5726 11.9567 70.17 12.4258 70.602 13.0266C71.034 13.6206 71.25 14.2922 71.25 15.0414C71.25 15.7839 71.034 16.4522 70.602 17.0462C70.17 17.6402 69.5726 18.1093 68.8098 18.4535C68.0471 18.791 67.1898 18.9598 66.2381 18.9598C65.3269 18.9598 64.4831 18.791 63.7069 18.4535C62.9374 18.1093 62.3231 17.6402 61.8641 17.0462C61.4119 16.4454 61.1857 15.7772 61.1857 15.0414C61.1857 14.2989 61.4119 13.6273 61.8641 13.0266C62.3231 12.4258 62.9374 11.9567 63.7069 11.6192C64.4831 11.2749 65.3269 11.1028 66.2381 11.1028ZM66.2482 16.8133C66.5722 16.8133 66.8827 16.7424 67.1797 16.6007C67.4835 16.4589 67.7298 16.253 67.9188 15.983C68.1078 15.713 68.2023 15.3992 68.2023 15.0414C68.2023 14.6769 68.1078 14.363 67.9188 14.0998C67.7298 13.8298 67.4835 13.6239 67.1797 13.4822C66.8827 13.3404 66.5722 13.2696 66.2482 13.2696C65.931 13.2696 65.6205 13.3404 65.3167 13.4822C65.0197 13.6239 64.7734 13.8298 64.5776 14.0998C64.3886 14.363 64.2941 14.6769 64.2941 15.0414C64.2941 15.3992 64.3886 15.713 64.5776 15.983C64.7734 16.253 65.0197 16.4589 65.3167 16.6007C65.6205 16.7424 65.931 16.8133 66.2482 16.8133ZM74.4435 18.7573H71.5579V11.2648L74.4435 18.7573ZM81.4804 18.7573H78.5947H81.4804ZM78.5947 15.4869V11.2648H81.4804V18.7573H78.5947L74.4435 14.5352V18.7573H71.5579V11.2648H74.4435L78.5947 15.4869Z" fill="#6F6F6F"/>
</svg>
