<svg width="15" height="15" viewBox="0 0 15 15" fill="none" xmlns="http://www.w3.org/2000/svg">
<path d="M7.46178 4.72369C5.95168 4.72369 4.7251 5.95028 4.7251 7.46037C4.7251 8.97047 5.95168 10.2 7.46178 10.2C8.97187 10.2 10.2014 8.97047 10.2014 7.46037C10.2014 5.95028 8.97187 4.72369 7.46178 4.72369Z" fill="white"/>
<path d="M11.5913 0H3.33057C1.49518 0 0 1.49518 0 3.33057V11.5913C0 13.4297 1.49518 14.9219 3.33057 14.9219H11.5913C13.4297 14.9219 14.9219 13.4297 14.9219 11.5913V3.33057C14.9219 1.49518 13.4297 0 11.5913 0ZM7.46096 12.2957C4.7959 12.2957 2.62626 10.126 2.62626 7.46096C2.62626 4.7959 4.7959 2.62924 7.46096 2.62924C10.126 2.62924 12.2957 4.7959 12.2957 7.46096C12.2957 10.126 10.126 12.2957 7.46096 12.2957ZM12.3971 3.50665C11.8331 3.50665 11.3735 3.05004 11.3735 2.48599C11.3735 1.92194 11.8331 1.46235 12.3971 1.46235C12.9612 1.46235 13.4208 1.92194 13.4208 2.48599C13.4208 3.05004 12.9612 3.50665 12.3971 3.50665Z" fill="white"/>
</svg>
